<?xml version="1.0" encoding="UTF-8" standalone="no"?>
<!-- Generator: Adobe Illustrator 18.1.1, SVG Export Plug-In . SVG Version: 6.00 Build 0)  -->

<svg
   xmlns:dc="http://purl.org/dc/elements/1.1/"
   xmlns:cc="http://creativecommons.org/ns#"
   xmlns:rdf="http://www.w3.org/1999/02/22-rdf-syntax-ns#"
   xmlns:svg="http://www.w3.org/2000/svg"
   xmlns="http://www.w3.org/2000/svg"
   xmlns:sodipodi="http://sodipodi.sourceforge.net/DTD/sodipodi-0.dtd"
   xmlns:inkscape="http://www.inkscape.org/namespaces/inkscape"
   version="1.1"
   id="Capa_1"
   x="0px"
   y="0px"
   viewBox="0 0 512 512"
   xml:space="preserve"
   inkscape:version="0.91 r13725"
   sodipodi:docname="icon.svg"
   width="512"
   height="512"
   inkscape:export-filename="/home/mex/Development/Escriba/web/Pictures/icon.png"
   inkscape:export-xdpi="67.5"
   inkscape:export-ydpi="67.5"><metadata
     id="metadata45"><rdf:RDF><cc:Work
         rdf:about=""><dc:format>image/svg+xml</dc:format><dc:type
           rdf:resource="http://purl.org/dc/dcmitype/StillImage" /><dc:title /></cc:Work></rdf:RDF></metadata><defs
     id="defs43"><filter
       inkscape:collect="always"
       style="color-interpolation-filters:sRGB"
       id="filter4179"
       x="-0.036"
       width="1.072"
       y="-0.036"
       height="1.072"><feGaussianBlur
         inkscape:collect="always"
         stdDeviation="5.985"
         id="feGaussianBlur4181" /></filter></defs><sodipodi:namedview
     pagecolor="#ffffff"
     bordercolor="#666666"
     borderopacity="1"
     objecttolerance="10"
     gridtolerance="10"
     guidetolerance="10"
     inkscape:pageopacity="0"
     inkscape:pageshadow="2"
     inkscape:window-width="1920"
     inkscape:window-height="1056"
     id="namedview41"
     showgrid="false"
     inkscape:zoom="1.7949219"
     inkscape:cx="256"
     inkscape:cy="256"
     inkscape:window-x="1280"
     inkscape:window-y="24"
     inkscape:window-maximized="1"
     inkscape:current-layer="Capa_1"
     inkscape:object-nodes="true" /><g
     id="g11"
     transform="matrix(-0.36201261,0,0,0.36201261,494.85132,384.75976)" /><g
     id="g13"
     transform="matrix(-0.36201261,0,0,0.36201261,494.85132,384.75976)" /><g
     id="g15"
     transform="matrix(-0.36201261,0,0,0.36201261,494.85132,384.75976)" /><g
     id="g17"
     transform="matrix(-0.36201261,0,0,0.36201261,494.85132,384.75976)" /><g
     id="g19"
     transform="matrix(-0.36201261,0,0,0.36201261,494.85132,384.75976)" /><g
     id="g21"
     transform="matrix(-0.36201261,0,0,0.36201261,494.85132,384.75976)" /><g
     id="g23"
     transform="matrix(-0.36201261,0,0,0.36201261,494.85132,384.75976)" /><g
     id="g25"
     transform="matrix(-0.36201261,0,0,0.36201261,494.85132,384.75976)" /><g
     id="g27"
     transform="matrix(-0.36201261,0,0,0.36201261,494.85132,384.75976)" /><g
     id="g29"
     transform="matrix(-0.36201261,0,0,0.36201261,494.85132,384.75976)" /><g
     id="g31"
     transform="matrix(-0.36201261,0,0,0.36201261,494.85132,384.75976)" /><g
     id="g33"
     transform="matrix(-0.36201261,0,0,0.36201261,494.85132,384.75976)" /><g
     id="g35"
     transform="matrix(-0.36201261,0,0,0.36201261,494.85132,384.75976)" /><g
     id="g37"
     transform="matrix(-0.36201261,0,0,0.36201261,494.85132,384.75976)" /><g
     id="g39"
     transform="matrix(-0.36201261,0,0,0.36201261,494.85132,384.75976)" /><path
     style="color:#000000;clip-rule:nonzero;display:inline;overflow:visible;visibility:visible;opacity:1;isolation:auto;mix-blend-mode:normal;color-interpolation:sRGB;color-interpolation-filters:linearRGB;solid-color:#000000;solid-opacity:1;fill:#b3b3b3;fill-opacity:1;fill-rule:nonzero;stroke:#e6e6e6;stroke-width:1;stroke-linecap:butt;stroke-linejoin:miter;stroke-miterlimit:4;stroke-dasharray:none;stroke-dashoffset:0;stroke-opacity:1;filter:url(#filter4179);color-rendering:auto;image-rendering:auto;shape-rendering:auto;text-rendering:auto;enable-background:accumulate"
     d="m 158.96777,56.498044 -102.468751,64.076166 0,297.92969 c 0,20.4967 16.50135,36.99804 36.99805,36.99804 l 325.005861,0 c 20.4967,0 36.99804,-16.50134 36.99804,-36.99804 l 0,-325.007806 c 0,-20.49669 -16.50135,-36.99805 -36.99804,-36.99805 l -259.53516,0 z"
     id="path4184"
     inkscape:connector-curvature="0" /><path
     style="fill:#ececec;fill-rule:evenodd;stroke:none;stroke-width:1px;stroke-linecap:butt;stroke-linejoin:miter;stroke-opacity:1"
     d="M 109.27677,177.35503 C 91.224064,179.05934 68.037935,130.03638 56.498745,120.57464 L 158.96843,56.498748"
     id="path4198"
     inkscape:connector-curvature="0"
     sodipodi:nodetypes="ccc" /><path
     style="color:#000000;clip-rule:nonzero;display:inline;overflow:visible;visibility:visible;opacity:1;isolation:auto;mix-blend-mode:normal;color-interpolation:sRGB;color-interpolation-filters:linearRGB;solid-color:#000000;solid-opacity:1;fill:#ececec;fill-opacity:1;fill-rule:nonzero;stroke:#b3b3b3;stroke-width:2.5;stroke-linecap:butt;stroke-linejoin:miter;stroke-miterlimit:4;stroke-dasharray:none;stroke-dashoffset:0;stroke-opacity:1;color-rendering:auto;image-rendering:auto;shape-rendering:auto;text-rendering:auto;enable-background:accumulate"
     d="M 127.70176,110.94811 C 130.4937,68.520964 151.8012,61.829327 158.96843,56.498748 l 259.53517,0 c 20.49669,0 36.99766,16.500953 36.99766,36.997644 l 0,325.007208 c 0,20.4967 -16.50096,36.99765 -36.99766,36.99765 l -325.007205,0 c -20.4967,0 -36.99765,-16.50095 -36.99765,-36.99765 l 0,-297.92896 c 11.63448,8.42564 15.214592,11.59882 27.922752,18.29622 23.269563,5.87717 41.131253,-9.60047 43.280263,-27.92275 z"
     id="rect3366"
     inkscape:connector-curvature="0"
     sodipodi:nodetypes="ccssssssccc" /><path
     inkscape:connector-curvature="0"
     id="path9-3"
     d="M 234.65488,429.77198 C 188.65017,446.58203 72.59061,441.02714 70.609783,385.12153 68.628954,329.21591 122.21662,324.21371 135.61755,320.93152 90.710232,310.95023 64.418682,265.91685 95.898385,233.88768 127.37809,201.85851 156.75106,214.48121 166.88734,221.3882 c 10.13626,6.907 10.63674,24.25806 0.0819,18.35632 -10.55482,-5.90173 -34.28134,-21.31056 -59.10296,5.32321 -24.821609,26.63376 8.15873,62.39253 52.81063,68.80187 4.80264,0.68936 8.4636,11.65815 -1.42499,14.49117 -32.13464,9.2064 -74.896791,12.33871 -72.687615,54.97341 2.209188,42.63472 96.878335,50.91197 144.874475,46.65189"
     style="fill:#010002"
     sodipodi:nodetypes="czczzzzsszc" /><path
     style="color:#000000;clip-rule:nonzero;display:inline;overflow:visible;visibility:visible;opacity:0.15;isolation:auto;mix-blend-mode:normal;color-interpolation:sRGB;color-interpolation-filters:linearRGB;solid-color:#000000;solid-opacity:1;fill:#808080;fill-opacity:1;fill-rule:evenodd;stroke:none;stroke-width:1px;stroke-linecap:butt;stroke-linejoin:miter;stroke-miterlimit:4;stroke-dasharray:none;stroke-dashoffset:0;stroke-opacity:1;color-rendering:auto;image-rendering:auto;shape-rendering:auto;text-rendering:auto;enable-background:accumulate"
     d="m 456.75126,103.46805 -142.51562,61.10351 -77.43359,267.14258 25.0371,25.03711 157.99219,0 c 20.43432,-0.041 36.87677,-16.48221 36.91992,-36.91602 l 0,-316.36718 z"
     id="path4209"
     inkscape:connector-curvature="0" /><path
     inkscape:connector-curvature="0"
     id="path5"
     d="m 432.8643,137.42341 c -16.45603,24.88264 -30.90438,54.45368 -33.18281,59.538 -0.65262,1.46616 -1.68072,4.92467 -2.83399,9.15586 -8.02303,-11.33723 -17.81108,-20.70765 -29.50846,-27.58508 -16.6923,-9.80848 -35.87887,-13.85065 -56.5929,-12.87874 5.0013,-7.94002 9.55178,-16.11631 11.73953,-22.47905 5.61944,-16.31682 25.98737,-83.691386 37.90058,-112.456548 11.90684,-28.7651611 57.25958,-8.293786 83.61476,6.689692 26.35519,14.983478 27.83285,33.447179 25.15212,38.532775 -2.67435,5.084318 -19.8328,36.600451 -36.28883,61.483091 z"
     style="fill:#502d16" /><path
     inkscape:connector-curvature="0"
     id="path7"
     d="m 331.80756,230.13144 c -35.05256,-14.44835 -42.54685,3.07793 -42.54685,3.07793 -11.10734,-10.30146 -3.34868,-22.47905 -3.34868,-22.47905 0,0 -2.80589,-5.21714 1.73692,-10.57222 2.77907,-3.26438 11.73314,-15.11502 19.56844,-27.56336 20.71403,-0.97191 39.90059,3.07025 56.59289,12.87874 11.69738,6.87743 21.48543,16.24146 29.50846,27.58508 -2.85442,10.45471 -6.516,25.77153 -7.46747,28.43948 -1.341,3.7446 -4.81356,8.82892 -8.03069,9.49559 -3.20947,0.66667 -5.08432,3.74459 -5.08432,3.74459 -4.1469,8.42661 -17.1227,8.96046 -17.1227,8.96046 0,0 11.25293,-19.11888 -23.806,-33.56724 z"
     style="fill:#28170b" /><path
     inkscape:connector-curvature="0"
     id="path9"
     d="m 226.20806,423.61014 c 0.19743,-3.45519 6.34869,-42.98491 3.67435,-60.64912 -2.67435,-17.65782 0,-19.26958 0,-19.26958 27.29261,-37.46252 60.4486,-108.21258 60.4486,-108.21258 4.41765,-7.35637 21.94392,-10.47516 43.61709,-0.80588 22.47905,10.03709 20.87368,23.81239 20.87368,23.81239 L 316.6862,370.90743 c -1.34101,3.61177 -7.49557,5.34869 -7.49557,5.34869 -35.72561,10.30146 -64.84582,46.40254 -68.72834,52.02199 -3.88253,5.61944 -6.6897,3.48022 -6.6897,3.48022 l 41.66434,-93.31212 c 3.18137,-0.72926 6.42532,-3.49428 8.33593,-7.59264 2.76503,-5.93873 1.66668,-12.30275 -2.45212,-14.21974 -4.11879,-1.917 -9.69737,1.341 -12.46239,7.27973 -2.0843,4.47384 -1.96553,9.18268 -0.0281,12.05881 l -39.96692,93.3653 c -1.84332,-0.16694 -2.8527,-2.27234 -2.65527,-5.72753 z"
     style="fill:#806600;stroke:none"
     sodipodi:nodetypes="zcccccccscccscccz" /></svg>