<?xml version="1.0" encoding="UTF-8" standalone="no"?>
<!-- Generator: Adobe Illustrator 18.1.1, SVG Export Plug-In . SVG Version: 6.00 Build 0)  -->

<svg
   xmlns:dc="http://purl.org/dc/elements/1.1/"
   xmlns:cc="http://creativecommons.org/ns#"
   xmlns:rdf="http://www.w3.org/1999/02/22-rdf-syntax-ns#"
   xmlns:svg="http://www.w3.org/2000/svg"
   xmlns="http://www.w3.org/2000/svg"
   xmlns:sodipodi="http://sodipodi.sourceforge.net/DTD/sodipodi-0.dtd"
   xmlns:inkscape="http://www.inkscape.org/namespaces/inkscape"
   version="1.1"
   id="Capa_1"
   x="0px"
   y="0px"
   viewBox="0 0 608 341"
   xml:space="preserve"
   inkscape:version="0.91 r13725"
   sodipodi:docname="pen.svg"
   width="608"
   height="341"
   inkscape:export-filename="/home/mex/Development/Escriba/web/Pictures/pen.png"
   inkscape:export-xdpi="90"
   inkscape:export-ydpi="90"><metadata
     id="metadata45"><rdf:RDF><cc:Work
         rdf:about=""><dc:format>image/svg+xml</dc:format><dc:type
           rdf:resource="http://purl.org/dc/dcmitype/StillImage" /><dc:title /></cc:Work></rdf:RDF></metadata><defs
     id="defs43" /><sodipodi:namedview
     pagecolor="#ffffff"
     bordercolor="#666666"
     borderopacity="1"
     objecttolerance="10"
     gridtolerance="10"
     guidetolerance="10"
     inkscape:pageopacity="0"
     inkscape:pageshadow="2"
     inkscape:window-width="1920"
     inkscape:window-height="1056"
     id="namedview41"
     showgrid="false"
     inkscape:zoom="1.4325236"
     inkscape:cx="201.09849"
     inkscape:cy="156.76653"
     inkscape:window-x="1280"
     inkscape:window-y="24"
     inkscape:window-maximized="1"
     inkscape:current-layer="Capa_1"
     inkscape:object-nodes="true" /><g
     id="g11"
     transform="matrix(-0.36201261,0,0,0.36201261,494.85132,213.75976)" /><g
     id="g13"
     transform="matrix(-0.36201261,0,0,0.36201261,494.85132,213.75976)" /><g
     id="g15"
     transform="matrix(-0.36201261,0,0,0.36201261,494.85132,213.75976)" /><g
     id="g17"
     transform="matrix(-0.36201261,0,0,0.36201261,494.85132,213.75976)" /><g
     id="g19"
     transform="matrix(-0.36201261,0,0,0.36201261,494.85132,213.75976)" /><g
     id="g21"
     transform="matrix(-0.36201261,0,0,0.36201261,494.85132,213.75976)" /><g
     id="g23"
     transform="matrix(-0.36201261,0,0,0.36201261,494.85132,213.75976)" /><g
     id="g25"
     transform="matrix(-0.36201261,0,0,0.36201261,494.85132,213.75976)" /><g
     id="g27"
     transform="matrix(-0.36201261,0,0,0.36201261,494.85132,213.75976)" /><g
     id="g29"
     transform="matrix(-0.36201261,0,0,0.36201261,494.85132,213.75976)" /><g
     id="g31"
     transform="matrix(-0.36201261,0,0,0.36201261,494.85132,213.75976)" /><g
     id="g33"
     transform="matrix(-0.36201261,0,0,0.36201261,494.85132,213.75976)" /><g
     id="g35"
     transform="matrix(-0.36201261,0,0,0.36201261,494.85132,213.75976)" /><g
     id="g37"
     transform="matrix(-0.36201261,0,0,0.36201261,494.85132,213.75976)" /><g
     id="g39"
     transform="matrix(-0.36201261,0,0,0.36201261,494.85132,213.75976)" /><rect
     style="color:#000000;clip-rule:nonzero;display:inline;overflow:visible;visibility:visible;opacity:1;isolation:auto;mix-blend-mode:normal;color-interpolation:sRGB;color-interpolation-filters:linearRGB;solid-color:#000000;solid-opacity:1;fill:#ffffff;fill-opacity:1;fill-rule:nonzero;stroke:none;stroke-width:1;stroke-linecap:butt;stroke-linejoin:miter;stroke-miterlimit:4;stroke-dasharray:none;stroke-dashoffset:0;stroke-opacity:1;color-rendering:auto;image-rendering:auto;shape-rendering:auto;text-rendering:auto;enable-background:accumulate"
     id="rect3357-3"
     width="608"
     height="341"
     x="0"
     y="0"
     rx="0"
     ry="0" /><rect
     style="color:#000000;clip-rule:nonzero;display:inline;overflow:visible;visibility:visible;opacity:0.3;isolation:auto;mix-blend-mode:normal;color-interpolation:sRGB;color-interpolation-filters:linearRGB;solid-color:#000000;solid-opacity:1;fill:#4527a0;fill-opacity:1;fill-rule:nonzero;stroke:none;stroke-width:1;stroke-linecap:butt;stroke-linejoin:miter;stroke-miterlimit:4;stroke-dasharray:none;stroke-dashoffset:0;stroke-opacity:1;color-rendering:auto;image-rendering:auto;shape-rendering:auto;text-rendering:auto;enable-background:accumulate"
     id="rect3357"
     width="608"
     height="341"
     x="0"
     y="0"
     rx="0"
     ry="0" /><path
     inkscape:connector-curvature="0"
     id="path7"
     d="m 435.81981,129.63639 c -35.05256,-14.44835 -42.54685,3.07793 -42.54685,3.07793 -11.10734,-10.30146 -3.34868,-22.47905 -3.34868,-22.47905 0,0 -2.80589,-5.21714 1.73692,-10.572223 2.77907,-3.26438 11.73314,-15.11502 19.56844,-27.56336 20.71403,-0.97191 39.90059,3.07025 56.59289,12.87874 11.69738,6.87743 21.48543,16.241463 29.50846,27.585083 -2.85442,10.45471 -6.516,25.77153 -7.46747,28.43948 -1.341,3.7446 -4.81356,8.82892 -8.03069,9.49559 -3.20947,0.66667 -5.08432,3.74459 -5.08432,3.74459 -4.1469,8.42661 -17.1227,8.96046 -17.1227,8.96046 0,0 11.25293,-19.11888 -23.806,-33.56724 z"
     style="fill:#28170b" /><path
     inkscape:connector-curvature="0"
     id="path9"
     d="m 330.22031,323.11509 c 0.19743,-3.45519 6.34869,-42.98491 3.67435,-60.64912 -2.67435,-17.65782 0,-19.26958 0,-19.26958 27.29261,-37.46252 60.4486,-108.21258 60.4486,-108.21258 4.41765,-7.35637 21.94392,-10.47516 43.61709,-0.80588 22.47905,10.03709 20.87368,23.81239 20.87368,23.81239 l -38.13558,112.42206 c -1.34101,3.61177 -7.49557,5.34869 -7.49557,5.34869 -35.72561,10.30146 -64.84582,46.40254 -68.72834,52.02199 -3.88253,5.61944 -6.6897,3.48022 -6.6897,3.48022 l 41.66434,-93.31212 c 3.18137,-0.72926 6.42532,-3.49428 8.33593,-7.59264 2.76503,-5.93873 1.66668,-12.30275 -2.45212,-14.21974 -4.11879,-1.917 -9.69737,1.341 -12.46239,7.27973 -2.0843,4.47384 -1.96553,9.18268 -0.0281,12.05881 l -39.96692,93.3653 c -1.84332,-0.16694 -2.8527,-2.27234 -2.65527,-5.72753 z"
     style="fill:#806600;stroke:none"
     sodipodi:nodetypes="zcccccccscccscccz" /><path
     style="color:#000000;clip-rule:nonzero;display:inline;overflow:visible;visibility:visible;opacity:1;isolation:auto;mix-blend-mode:normal;color-interpolation:sRGB;color-interpolation-filters:linearRGB;solid-color:#000000;solid-opacity:1;fill:#502d16;fill-opacity:1;fill-rule:nonzero;stroke:none;stroke-width:1;stroke-linecap:butt;stroke-linejoin:miter;stroke-miterlimit:4;stroke-dasharray:none;stroke-dashoffset:0;stroke-opacity:1;color-rendering:auto;image-rendering:auto;shape-rendering:auto;text-rendering:auto;enable-background:accumulate;filter-blend-mode:normal;filter-gaussianBlur-deviation:0"
     d="M 440.23242 0 C 434.16561 18.892093 428.92721 35.626278 426.49805 42.679688 C 424.3103 49.042428 419.75911 57.218183 414.75781 65.158203 C 435.47184 64.186293 454.65926 68.228629 471.35156 78.037109 C 483.04894 84.914539 492.83634 94.285814 500.85938 105.62305 C 502.01265 101.39186 503.04074 97.932957 503.69336 96.466797 C 505.97179 91.382477 520.42092 61.810374 536.87695 36.927734 C 544.82561 24.908821 552.90378 11.387955 559.46875 0 L 440.23242 0 z "
     id="rect3361" /></svg>